<svg width="142" height="136" viewBox="0 0 142 136" fill="none" xmlns="http://www.w3.org/2000/svg">
<path d="M42.4383 6.96674C45.4742 4.73632 47 4.5 48.5 4C50.5 3.5 54.486 2.8934 55.7343 2.73621C60.3887 2.1501 64.7702 1.52749 69.4891 1.52749C80.3877 1.52749 93.219 3.25437 102.83 8.62314C107.601 11.2883 112.645 13.1598 116.708 16.9499C119.85 19.8813 123.039 22.9197 125.583 26.3847C128.189 29.9346 129.474 33.6333 131.481 37.4982C133.457 41.3031 135.584 44.7981 136.864 48.9587C140.711 61.4596 141.776 74.6526 138.241 87.2797L138.172 87.5245C137.325 90.5524 136.339 94.0808 134.413 96.569C132.341 99.2474 130.198 101.857 128.123 104.56C126 107.327 123.452 109.718 121.274 112.461C118.777 115.606 116.043 118.426 113.014 121.068C109.824 123.851 105.782 125.259 101.901 126.843C97.7902 128.521 93.1577 129.852 88.7951 130.659C84.0993 131.529 79.3949 132.238 74.6709 132.92C69.6512 133.645 64.5701 134.787 59.4836 133.983C55.0397 133.282 50.6237 132.553 46.389 130.973C42.5546 129.542 38.7592 126.456 35.5217 123.989C26.9463 117.455 20.2485 109.69 13.899 101.09C12.0847 98.6333 10.0137 96.6666 8.66121 93.8829C7.42301 91.3344 6.11833 88.7301 5.19173 86.0486C3.48406 81.1067 1.62069 76.5482 2.41614 71.197C3.20484 65.8912 4.98836 60.763 6.57952 55.6514C7.80492 51.7148 8.69226 47.7304 10.4743 43.9895C12.1281 40.5178 14.1683 37.1803 16.0143 33.8049C17.8088 30.5235 20.6055 28.1413 22.7966 25.1536C25.0128 22.1314 27.3078 19.4369 30.0153 16.8268C33.8297 13.1497 38.1867 10.0904 42.4383 6.96674Z" fill="black" stroke="black" stroke-width="3" stroke-linecap="round"/>
</svg>
